<svg width="16" height="12" viewBox="0 0 16 12" fill="none" xmlns="http://www.w3.org/2000/svg">
    <path fill-rule="evenodd" clip-rule="evenodd" d="M9.55536 0.375V6.60775H12.0309C12.0309 7.98362 11.059 9.68123 9.54925 10.2512L10.1666 11.5903C13.4306 10.9407 15.7594 8.53213 15.7594 4.98062V0.375H9.55536ZM15.136 4.98062C15.136 7.90088 13.3786 10.1164 10.515 10.8702V10.8671L10.3652 10.5423C11.8536 9.6751 12.6482 7.94991 12.6482 6.60163V5.98264H10.1727V0.99705H15.1329V4.98062H15.136ZM0.845215 0.375V6.60775H3.3299C3.3299 7.98362 2.35803 9.68123 0.848274 10.2512L1.46562 11.5903C4.72963 10.9407 7.04928 8.53213 7.04928 4.98062V0.375H0.845215ZM6.42582 4.98062C6.42582 7.90088 4.67156 10.1194 1.81708 10.8702L1.66733 10.5454C3.15264 9.67817 3.95031 7.95298 3.95031 6.60469V5.98264H1.46562V0.99705H6.42582V4.98062Z" fill="url(#paint0_linear_117_1448)"/>
    <defs>
        <linearGradient id="paint0_linear_117_1448" x1="0.84439" y1="5.98338" x2="15.7584" y2="5.98338" gradientUnits="userSpaceOnUse">
            <stop stop-color="#DE8667"/>
            <stop offset="1" stop-color="#EFB467"/>
        </linearGradient>
    </defs>
</svg>